<svg width="1564" height="1170" viewBox="0 0 1564 1170" fill="none" xmlns="http://www.w3.org/2000/svg">
<path d="M0 702V528H23.5V683.5H83.5V702H0Z" fill="#D2D2D2"/>
<path d="M107.5 651L106.5 528H130V629C130 645.5 132.107 656.669 133.5 660.5C136.124 667.716 147.6 683.1 170 683.5C192.31 683.898 201.195 675.568 204.955 672.043L205 672C213 664.5 216 646.5 216 638.5V528.5H238V565V613V652C237.6 665.2 228 678.629 223.5 684C211.1 698.8 187.704 701.93 178.5 703C157 705.5 131 694 123.5 686C117.028 679.097 107.5 665 107.5 651Z" fill="#D2D2D2"/>
<path d="M1325.5 702H1349.5V577.5L1407 702H1422.5L1479.5 578V702H1503.5V528H1479.5L1414.5 669L1349.5 528H1325.5V702Z" fill="#D2D2D2"/>
<path d="M1563.5 702H1539.5V528H1563.5V702Z" fill="#D2D2D2"/>
<path d="M859.5 1113H706C711.6 1148.6 743.299 1163.91 759.5 1167C769.5 1168.9 793.4 1173.6 821 1162C848.6 1150.4 858.167 1124.33 859.5 1113Z" fill="#D2D2D2"/>
<path d="M612.5 841C647.376 881.109 671 934.833 678 966.5C675.2 970.9 659 978 652 981.5C639.628 987.686 619.899 992 611.5 992C604.833 992 588.8 991.2 578 988C567.2 984.8 557.786 976 553.5 973C537.5 961.8 525.5 928 525.5 913L525 888L524 836C524 820.5 520.333 799.167 517.5 790.5C531.5 797.7 563.667 840.833 578 861.5C579.167 863 581.6 865.5 582 863.5C582.4 861.5 574.167 848 570 841.5C566.167 835.167 556.7 820 549.5 810C540.5 797.5 524.5 778.5 512.5 766C502.9 756 476.167 734.833 464 725.5C460 721.9 434.5 706 421.5 699.5C406 692 382 670.071 372 661.5C358 649.5 351.5 620.5 352 607C353.6 580.6 370 561 376 553.5C378.596 550.255 389.001 541.004 401.5 532.5C413.078 524.622 426.524 517.549 435.5 512.5C456.3 502.5 482.5 479.167 493 469C492.6 487.8 471.5 539.333 461.5 563.5C469.667 548 490.2 511.4 503 483C515.8 454.6 521.667 411.833 523 394L525.5 320C525.1 278 549.667 249.667 562 240.5C577.5 229.5 620.3 215.7 659.5 242.5C698.7 269.3 742.167 285 759 289.5C760 289.333 756.9 290.6 736.5 297C716.1 303.4 676.667 307.833 659.5 309.5C739.1 307.9 771 299 779.5 297.5C809.1 292.7 854.167 269.667 873 259C909 235.4 939.788 229.793 950.5 228.5C973.7 225.7 992 233 998 237C1001.43 239.285 1042.5 268 1039.5 323.5C1037.1 367.9 1042.83 411.333 1046 427.5C1041.91 425.096 1023.89 405.924 1008.5 387C991.882 366.569 978.106 346.675 982 355.5C988 369.1 1010.83 403.167 1021.5 418.5C1037.1 442.1 1069.33 470 1083.5 481C1091.5 487 1126.5 510.5 1144 521C1152.22 525.73 1164.03 533.245 1174 541.5C1184.05 549.824 1192.23 558.893 1197 564.5C1204.5 575.167 1218.6 605 1209 631C1199.4 657 1181.69 671.309 1177 676C1165 688 1111.5 717 1108.5 718.5C1106 719.752 1082.83 735.667 1072 744C1074.4 731.6 1094.17 679.667 1103.5 655C1083 683.5 1059.5 735 1052.5 760.5C1041 796 1039.67 861.667 1039.5 900C1035.5 947.5 1016.17 970.167 1007 976.5C998.5 984.167 973.4 997.4 945 991C916.6 984.6 894.833 973 887.5 968C890.3 947.6 897.293 928.5 900.5 919.5C916 876 969.667 821.5 1001.5 786.5C1015.83 771.833 1046.6 725.3 1055 656.5C1063.4 587.7 1044.83 531.167 1034.5 511.5C1022.5 486.5 991.9 418.8 895.5 372C799.1 325.2 709.5 355.69 678.5 367.5C658 375.309 602.1 399.9 560.5 459.5C518.9 519.1 508.167 593 508 622.5C502.865 670.323 520.397 718.009 548 765C563.398 791.213 603.37 830.5 612.5 841Z" fill="#7F75FF"/>
<circle cx="410.5" cy="831" r="61" fill="#7F75FF"/>
<circle cx="1160.5" cy="821" r="61" fill="#7F75FF"/>
<circle cx="1154.5" cy="389" r="61" fill="#7F75FF"/>
<circle cx="405.5" cy="398" r="61" fill="#7F75FF"/>
<circle cx="781.5" cy="177" r="61" fill="#7F75FF"/>
<circle cx="777.5" cy="42" r="42" fill="#7F75FF"/>
<circle cx="292.5" cy="322" r="42" fill="#7F75FF"/>
<circle cx="288.5" cy="890" r="42" fill="#7F75FF"/>
<circle cx="1272.5" cy="898" r="42" fill="#7F75FF"/>
<circle cx="1276.5" cy="331" r="42" fill="#7F75FF"/>
<rect x="666.5" y="1007" width="234" height="34" rx="17" fill="#D2D2D2"/>
<rect x="680.5" y="1060" width="205" height="34" rx="17" fill="#D2D2D2"/>
<path fill-rule="evenodd" clip-rule="evenodd" d="M623.5 789H772.5V758L654.5 757.5V507.5L723.5 625.5L793 507.5V679C793 683.5 793 693.9 791 699.5C789 705.1 784.203 708.214 782.5 709C777.846 711.148 769.167 710.667 766 709.5C760.8 707.5 758.8 704.5 757 701.5C755.5 699 754 691.77 754 688.405V627.5H730V687.5C730 697.5 732.5 708.667 734.5 713C741.7 727.8 757.853 732.206 765 733C778.5 734.5 791.783 731.108 797 728.5C797.091 728.455 797.203 728.402 797.336 728.339C799.116 727.498 804.543 724.935 810.5 716C816.9 706.4 818.167 694 818 689C824.4 699.4 838.189 707.67 844.5 710C870.5 719.6 883.346 728.398 886 732C897.2 747.2 887.37 758.13 883.5 762C881.5 764 875.3 768.4 862.5 768C849.7 767.6 840.165 760.831 837 757.5C835.442 755.86 828.833 748.333 826.5 744.5C819.333 748.667 805.1 757.2 805.5 758C805.9 758.8 810.5 766.074 813 769.5C826.5 788 847.206 791.894 855.5 793C873.5 795.4 888.5 789.167 893.5 786C902.569 780.256 909.667 773.5 911.5 770.5C913.5 767.227 916.7 757.3 917.5 746.5C918.3 735.7 913.833 725 911.5 721C904.3 709 893.5 703.5 891 702.5C882.172 698.969 863.667 691 855 686.5C846.2 681.3 842.436 676.561 841.5 675C840 672.5 839.7 666.4 840.5 660C841.3 653.6 848.394 648.562 852.5 647.5C875 641.681 887.5 654.167 890.5 661L910.5 644.5C907.667 642.5 902.4 638.4 904 638C906 637.5 929.5 631.5 934 628C934.406 627.684 935.158 627.201 936.185 626.542C946.537 619.898 984.778 595.355 977.5 543.5C971.1 497.9 937.291 479.538 924 474C918 471.5 906 467 880.5 469.5C855.01 471.999 831.833 492.5 823.5 503.5V455.5H790.5L723.5 570.5L655.5 455.5H623.5V789ZM953 553C953 586.689 925.689 614 892 614C858.311 614 831 586.689 831 553C831 519.311 858.311 492 892 492C925.689 492 953 519.311 953 553ZM823 602V638C826.667 633 836.4 623.2 846 624C837.2 620 827 607.667 823 602Z" fill="#7F75FF"/>
</svg>
