<svg width="125" height="64" viewBox="0 0 125 64" fill="none" xmlns="http://www.w3.org/2000/svg">
<path d="M118.229 39.3392H109.911C109.997 38.2717 109.655 35.8837 108.091 34.3435C106.141 32.423 106.141 32.9348 104.322 30.3729C102.502 27.811 102.892 24.2242 103.542 22.3028C104.192 20.3814 104.972 18.9732 106.661 17.5642C108.351 16.1552 109.391 15.642 111.86 15.1297C114.33 14.6174 117.449 15.7704 117.969 16.0265C118.489 16.2826 120.698 17.0512 122.908 20.6378C125.117 24.2244 123.316 28.7816 123.168 29.2198C123.038 29.6049 122.648 30.885 120.048 33.4469C119.566 33.9219 118.151 34.7278 117.839 35.7526M118.229 42.6696H109.911M117.319 46H110.69" stroke="#564AFF" stroke-width="2" stroke-linecap="round"/>
<path d="M3.98578 28.8H7.26578V42.68L5.74578 43C5.23911 43 4.81245 42.84 4.46578 42.52C4.14578 42.1733 3.98578 41.7467 3.98578 41.24V28.8ZM5.74578 43V40.2H18.7458C18.8791 40.3067 18.9858 40.48 19.0658 40.72C19.1458 40.96 19.1858 41.2267 19.1858 41.52C19.1858 41.9733 19.0658 42.3333 18.8258 42.6C18.5858 42.8667 18.2658 43 17.8658 43H5.74578ZM7.26578 31.2H3.98578V18.76C4.11911 18.7067 4.31911 18.6533 4.58578 18.6C4.87911 18.52 5.18578 18.48 5.50578 18.48C6.09245 18.48 6.53245 18.6 6.82578 18.84C7.11911 19.0533 7.26578 19.4267 7.26578 19.96V31.2ZM32.878 43.52C30.878 43.52 29.1713 43.16 27.758 42.44C26.3446 41.6933 25.2646 40.6533 24.518 39.32C23.798 37.96 23.438 36.3867 23.438 34.6V31.32H26.678V34.32C26.678 36.4533 27.2646 38.0667 28.438 39.16C29.638 40.2267 31.118 40.76 32.878 40.76C34.638 40.76 36.1046 40.2267 37.278 39.16C38.478 38.0667 39.078 36.4533 39.078 34.32V31.32H42.358V34.6C42.358 36.3867 41.9846 37.96 41.238 39.32C40.518 40.6533 39.4513 41.6933 38.038 42.44C36.6246 43.16 34.9046 43.52 32.878 43.52ZM26.678 32.96H23.438V18.76C23.5713 18.7067 23.7713 18.6533 24.038 18.6C24.3313 18.52 24.638 18.48 24.958 18.48C25.5446 18.48 25.9713 18.6 26.238 18.84C26.5313 19.0533 26.678 19.4267 26.678 19.96V32.96ZM42.358 32.96H39.078V18.76C39.2113 18.7067 39.4113 18.6533 39.678 18.6C39.9713 18.52 40.278 18.48 40.598 18.48C41.1846 18.48 41.6246 18.6 41.918 18.84C42.2113 19.0533 42.358 19.4267 42.358 19.96V32.96ZM63.2945 36.68C63.1079 36.8133 62.8545 36.9333 62.5345 37.04C62.2412 37.1467 61.9079 37.2 61.5345 37.2C61.1079 37.2 60.7212 37.1333 60.3745 37C60.0545 36.8667 59.8279 36.6533 59.6945 36.36C58.2812 33.3733 57.0412 30.64 55.9745 28.16C54.9345 25.68 54.0945 23.6267 53.4545 22H53.2945C53.2145 24 53.1212 25.8667 53.0145 27.6C52.9345 29.3333 52.8412 31.0133 52.7345 32.64C52.6279 34.24 52.5212 35.8933 52.4145 37.6C52.3345 39.28 52.2279 41.08 52.0945 43C51.9345 43.0533 51.7212 43.1067 51.4545 43.16C51.2145 43.2133 50.9479 43.24 50.6545 43.24C50.0679 43.24 49.6545 43.12 49.4145 42.88C49.1745 42.6133 49.0545 42.2667 49.0545 41.84C49.0545 41.52 49.0812 40.7867 49.1345 39.64C49.2145 38.4667 49.2945 37.04 49.3745 35.36C49.4812 33.68 49.6012 31.8933 49.7345 30C49.8679 28.08 50.0012 26.2 50.1345 24.36C50.2945 22.4933 50.4412 20.8133 50.5745 19.32C50.7879 19.1333 51.0945 18.96 51.4945 18.8C51.8945 18.64 52.3479 18.56 52.8545 18.56C53.4679 18.56 53.9879 18.68 54.4145 18.92C54.8412 19.16 55.1745 19.5333 55.4145 20.04C56.1079 21.4 56.8012 22.88 57.4945 24.48C58.1879 26.08 58.8679 27.68 59.5345 29.28C60.2012 30.88 60.8412 32.3867 61.4545 33.8H61.6145C62.7879 30.9733 63.9479 28.2533 65.0945 25.64C66.2679 23.0267 67.2545 20.8 68.0545 18.96C68.2945 18.8267 68.6012 18.7333 68.9745 18.68C69.3479 18.6 69.6945 18.56 70.0145 18.56C70.6279 18.56 71.1079 18.6667 71.4545 18.88C71.8279 19.0667 72.0679 19.3867 72.1745 19.84C72.2812 20.2933 72.4012 21.0667 72.5345 22.16C72.6679 23.2533 72.8012 24.5467 72.9345 26.04C73.0679 27.5067 73.1879 29.0533 73.2945 30.68C73.4279 32.3067 73.5479 33.9067 73.6545 35.48C73.7612 37.0533 73.8545 38.48 73.9345 39.76C74.0412 41.0133 74.1079 42.0133 74.1345 42.76C73.8945 42.92 73.6412 43.04 73.3745 43.12C73.1079 43.2 72.8012 43.24 72.4545 43.24C72.0545 43.24 71.6945 43.1467 71.3745 42.96C71.0812 42.7467 70.9079 42.3733 70.8545 41.84C70.6945 39.2533 70.5345 36.7067 70.3745 34.2C70.2412 31.6667 70.1212 29.3467 70.0145 27.24C69.9079 25.1333 69.8145 23.4133 69.7345 22.08H69.5745C68.9879 23.5467 68.1879 25.44 67.1745 27.76C66.1612 30.0533 64.8679 33.0267 63.2945 36.68ZM80.7055 28.48H83.9455V42.92C83.8121 42.9733 83.6121 43.0267 83.3455 43.08C83.0788 43.16 82.7855 43.2 82.4655 43.2C81.8788 43.2 81.4388 43.08 81.1455 42.84C80.8521 42.6 80.7055 42.2267 80.7055 41.72V28.48ZM83.9455 31.16H80.7055V18.76C80.8388 18.7067 81.0388 18.6533 81.3055 18.6C81.5988 18.52 81.9055 18.48 82.2255 18.48C82.8121 18.48 83.2388 18.6 83.5055 18.84C83.7988 19.0533 83.9455 19.4267 83.9455 19.96V31.16Z" fill="#5C5C5C"/>
</svg>
