<svg width="23" height="33" viewBox="0 0 23 33" fill="none" xmlns="http://www.w3.org/2000/svg">
<path d="M16.2289 25.3392H7.91067C7.99732 24.2717 7.65456 21.8837 6.09107 20.3435C4.14143 18.423 4.14141 18.9348 2.32181 16.3729C0.502205 13.811 0.892216 10.2242 1.54207 8.30279C2.19191 6.3814 2.97168 4.97321 4.66131 3.56418C6.35095 2.15516 7.3907 1.64201 9.86018 1.12972C12.3296 0.617437 15.449 1.77044 15.9688 2.0265C16.4888 2.28259 18.6982 3.05124 20.9078 6.63784C23.1173 10.2244 21.3157 14.7816 21.1678 15.2198C21.0378 15.6049 20.6479 16.885 18.0484 19.4469C17.5665 19.9219 16.1509 20.7278 15.8389 21.7526M16.2289 28.6696H7.91067M15.319 32H8.69049" stroke="#564AFF" stroke-width="2" stroke-linecap="round"/>
</svg>
